<svg xmlns="http://www.w3.org/2000/svg" xmlns:xlink="http://www.w3.org/1999/xlink" width="500" zoomAndPan="magnify" viewBox="0 0 375 374.999991" height="500" preserveAspectRatio="xMidYMid meet" version="1.0"><defs><g/><clipPath id="0a2bc9e18f"><path d="M 0.539062 0.863281 L 53.765625 0.863281 L 53.765625 54.089844 L 0.539062 54.089844 Z M 0.539062 0.863281 " clip-rule="nonzero"/></clipPath><clipPath id="cc7ea56c67"><path d="M 27.152344 0.863281 C 12.453125 0.863281 0.539062 12.777344 0.539062 27.476562 C 0.539062 42.175781 12.453125 54.089844 27.152344 54.089844 C 41.851562 54.089844 53.765625 42.175781 53.765625 27.476562 C 53.765625 12.777344 41.851562 0.863281 27.152344 0.863281 Z M 27.152344 0.863281 " clip-rule="nonzero"/></clipPath><clipPath id="3186d60fc4"><path d="M 0.539062 0.863281 L 53.765625 0.863281 L 53.765625 54.089844 L 0.539062 54.089844 Z M 0.539062 0.863281 " clip-rule="nonzero"/></clipPath><clipPath id="9cd4549553"><path d="M 27.152344 0.863281 C 12.453125 0.863281 0.539062 12.777344 0.539062 27.476562 C 0.539062 42.175781 12.453125 54.089844 27.152344 54.089844 C 41.851562 54.089844 53.765625 42.175781 53.765625 27.476562 C 53.765625 12.777344 41.851562 0.863281 27.152344 0.863281 Z M 27.152344 0.863281 " clip-rule="nonzero"/></clipPath><clipPath id="1a365b02f3"><rect x="0" width="54" y="0" height="55"/></clipPath><clipPath id="cfa74a77c0"><rect x="0" width="368" y="0" height="61"/></clipPath></defs><g transform="matrix(1, 0, 0, 1, 7, 161)"><g clip-path="url(#cfa74a77c0)"><g clip-path="url(#0a2bc9e18f)"><g clip-path="url(#cc7ea56c67)"><g transform="matrix(1, 0, 0, 1, 0.000000000000000888, 0)"><g clip-path="url(#1a365b02f3)"><g clip-path="url(#3186d60fc4)"><g clip-path="url(#9cd4549553)"><path fill="#ff3131" d="M 0.539062 0.863281 L 53.765625 0.863281 L 53.765625 54.089844 L 0.539062 54.089844 Z M 0.539062 0.863281 " fill-opacity="1" fill-rule="nonzero"/></g></g></g></g></g></g><g fill="#000000" fill-opacity="1"><g transform="translate(60.266542, 44.904404)"><g><path d="M 14.15625 -36.890625 C 15.445312 -36.890625 16.601562 -36.78125 17.625 -36.5625 C 18.65625 -36.34375 19.757812 -36.054688 20.9375 -35.703125 C 21.476562 -35.515625 22.023438 -35.359375 22.578125 -35.234375 C 23.140625 -35.109375 23.617188 -35.046875 24.015625 -35.046875 C 24.515625 -35.046875 24.925781 -35.1875 25.25 -35.46875 C 25.570312 -35.757812 25.820312 -36.234375 26 -36.890625 L 27.78125 -36.890625 L 27.78125 -25.09375 L 26.109375 -25.09375 C 24.992188 -27.894531 23.40625 -30.128906 21.34375 -31.796875 C 19.28125 -33.460938 17.117188 -34.296875 14.859375 -34.296875 C 13.242188 -34.296875 11.953125 -33.898438 10.984375 -33.109375 C 10.015625 -32.316406 9.53125 -31.257812 9.53125 -29.9375 C 9.53125 -28.96875 9.816406 -28.113281 10.390625 -27.375 C 10.960938 -26.644531 11.695312 -26 12.59375 -25.4375 C 13.5 -24.882812 14.789062 -24.175781 16.46875 -23.3125 C 17.082031 -23.03125 18 -22.566406 19.21875 -21.921875 C 21.664062 -20.617188 23.625 -19.429688 25.09375 -18.359375 C 26.5625 -17.285156 27.742188 -16.003906 28.640625 -14.515625 C 29.535156 -13.023438 29.984375 -11.273438 29.984375 -9.265625 C 29.984375 -7.328125 29.472656 -5.578125 28.453125 -4.015625 C 27.429688 -2.453125 26.03125 -1.222656 24.25 -0.328125 C 22.476562 0.566406 20.515625 1.015625 18.359375 1.015625 C 16.992188 1.015625 15.738281 0.878906 14.59375 0.609375 C 13.445312 0.347656 12.15625 -0.03125 10.71875 -0.53125 C 9.175781 -1.113281 8.097656 -1.40625 7.484375 -1.40625 C 6.804688 -1.40625 6.1875 -1.1875 5.625 -0.75 C 5.070312 -0.320312 4.722656 0.25 4.578125 0.96875 L 2.859375 0.96875 L 2.859375 -11.625 L 4.578125 -11.625 C 5.765625 -8.613281 7.46875 -6.21875 9.6875 -4.4375 C 11.914062 -2.664062 14.269531 -1.78125 16.75 -1.78125 C 18.539062 -1.78125 20.019531 -2.28125 21.1875 -3.28125 C 22.351562 -4.289062 22.9375 -5.566406 22.9375 -7.109375 C 22.9375 -8.359375 22.601562 -9.441406 21.9375 -10.359375 C 21.269531 -11.273438 20.398438 -12.082031 19.328125 -12.78125 C 18.253906 -13.488281 16.710938 -14.378906 14.703125 -15.453125 C 13.046875 -16.316406 12.078125 -16.835938 11.796875 -17.015625 C 8.890625 -18.628906 6.691406 -20.21875 5.203125 -21.78125 C 3.710938 -23.34375 2.96875 -25.328125 2.96875 -27.734375 C 2.96875 -29.421875 3.453125 -30.960938 4.421875 -32.359375 C 5.390625 -33.753906 6.722656 -34.859375 8.421875 -35.671875 C 10.128906 -36.484375 12.039062 -36.890625 14.15625 -36.890625 Z M 14.15625 -36.890625 "/></g></g></g><g fill="#000000" fill-opacity="1"><g transform="translate(95.317219, 44.904404)"><g><path d="M 11.359375 -36.890625 L 11.359375 -5.328125 C 11.359375 -4.253906 11.460938 -3.460938 11.671875 -2.953125 C 11.890625 -2.453125 12.222656 -2.128906 12.671875 -1.984375 C 13.128906 -1.847656 13.785156 -1.757812 14.640625 -1.71875 L 14.640625 0 L 1.015625 0 L 1.015625 -1.71875 C 2.023438 -1.757812 2.789062 -1.859375 3.3125 -2.015625 C 3.832031 -2.179688 4.21875 -2.523438 4.46875 -3.046875 C 4.71875 -3.566406 4.84375 -4.347656 4.84375 -5.390625 L 4.84375 -30.6875 C 4.84375 -31.375 4.679688 -32.054688 4.359375 -32.734375 C 4.035156 -33.421875 3.460938 -33.765625 2.640625 -33.765625 C 2.140625 -33.765625 1.726562 -33.707031 1.40625 -33.59375 L 1.015625 -35.328125 L 9.15625 -36.890625 Z M 29.015625 -22.9375 C 28.234375 -22.9375 27.425781 -22.765625 26.59375 -22.421875 C 25.769531 -22.085938 24.785156 -21.453125 23.640625 -20.515625 L 17.28125 -15.5 L 26.546875 -4.421875 C 27.296875 -3.515625 27.972656 -2.890625 28.578125 -2.546875 C 29.191406 -2.210938 29.96875 -1.9375 30.90625 -1.71875 L 30.90625 0 L 17.28125 0 L 17.28125 -1.71875 C 18.101562 -1.757812 18.648438 -1.832031 18.921875 -1.9375 C 19.191406 -2.039062 19.328125 -2.273438 19.328125 -2.640625 C 19.328125 -2.859375 19.253906 -3.097656 19.109375 -3.359375 C 18.972656 -3.628906 18.671875 -4.085938 18.203125 -4.734375 L 11.625 -13.78125 L 17.765625 -19.28125 C 17.941406 -19.414062 18.265625 -19.707031 18.734375 -20.15625 C 19.203125 -20.613281 19.523438 -20.96875 19.703125 -21.21875 C 19.878906 -21.46875 19.96875 -21.703125 19.96875 -21.921875 C 19.96875 -22.273438 19.820312 -22.523438 19.53125 -22.671875 C 19.25 -22.816406 18.785156 -22.90625 18.140625 -22.9375 L 18.140625 -24.65625 L 29.015625 -24.65625 Z M 29.015625 -22.9375 "/></g></g></g><g fill="#000000" fill-opacity="1"><g transform="translate(130.367897, 44.904404)"><g><path d="M 8.015625 -36.890625 C 9.097656 -36.890625 10.015625 -36.507812 10.765625 -35.75 C 11.523438 -35 11.90625 -34.082031 11.90625 -33 C 11.90625 -31.925781 11.523438 -31.007812 10.765625 -30.25 C 10.015625 -29.5 9.097656 -29.125 8.015625 -29.125 C 6.941406 -29.125 6.023438 -29.5 5.265625 -30.25 C 4.515625 -31.007812 4.140625 -31.925781 4.140625 -33 C 4.140625 -34.082031 4.515625 -35 5.265625 -35.75 C 6.023438 -36.507812 6.941406 -36.890625 8.015625 -36.890625 Z M 11.09375 -25.734375 L 11.09375 -5.328125 C 11.09375 -4.253906 11.207031 -3.460938 11.4375 -2.953125 C 11.675781 -2.453125 12.023438 -2.128906 12.484375 -1.984375 C 12.953125 -1.847656 13.671875 -1.757812 14.640625 -1.71875 L 14.640625 0 L 0.640625 0 L 0.640625 -1.71875 C 1.722656 -1.757812 2.523438 -1.847656 3.046875 -1.984375 C 3.566406 -2.128906 3.953125 -2.453125 4.203125 -2.953125 C 4.453125 -3.460938 4.578125 -4.273438 4.578125 -5.390625 L 4.578125 -18.203125 C 4.578125 -19.523438 4.367188 -20.535156 3.953125 -21.234375 C 3.546875 -21.941406 2.945312 -22.296875 2.15625 -22.296875 C 1.789062 -22.296875 1.410156 -22.222656 1.015625 -22.078125 L 0.640625 -23.796875 L 8.78125 -25.734375 Z M 11.09375 -25.734375 "/></g></g></g><g fill="#000000" fill-opacity="1"><g transform="translate(149.104864, 44.904404)"><g><path d="M 11.09375 -36.890625 L 11.09375 -5.390625 C 11.09375 -3.910156 11.316406 -2.945312 11.765625 -2.5 C 12.210938 -2.050781 12.992188 -1.789062 14.109375 -1.71875 L 14.109375 0 L 1.5 0 L 1.5 -1.71875 C 2.65625 -1.757812 3.457031 -2.003906 3.90625 -2.453125 C 4.351562 -2.898438 4.578125 -3.859375 4.578125 -5.328125 L 4.578125 -29.671875 C 4.578125 -31.242188 4.378906 -32.328125 3.984375 -32.921875 C 3.585938 -33.515625 2.832031 -33.8125 1.71875 -33.8125 L 1.5 -33.8125 L 1.125 -35.484375 L 9.09375 -36.890625 Z M 11.09375 -36.890625 "/></g></g></g><g fill="#000000" fill-opacity="1"><g transform="translate(167.841832, 44.904404)"><g><path d="M 11.09375 -36.890625 L 11.09375 -5.390625 C 11.09375 -3.910156 11.316406 -2.945312 11.765625 -2.5 C 12.210938 -2.050781 12.992188 -1.789062 14.109375 -1.71875 L 14.109375 0 L 1.5 0 L 1.5 -1.71875 C 2.65625 -1.757812 3.457031 -2.003906 3.90625 -2.453125 C 4.351562 -2.898438 4.578125 -3.859375 4.578125 -5.328125 L 4.578125 -29.671875 C 4.578125 -31.242188 4.378906 -32.328125 3.984375 -32.921875 C 3.585938 -33.515625 2.832031 -33.8125 1.71875 -33.8125 L 1.5 -33.8125 L 1.125 -35.484375 L 9.09375 -36.890625 Z M 11.09375 -36.890625 "/></g></g></g><g fill="#000000" fill-opacity="1"><g transform="translate(186.5788, 44.904404)"><g><path d="M 35 -26.765625 C 35 -24.710938 34.21875 -22.921875 32.65625 -21.390625 C 31.09375 -19.867188 29.09375 -18.945312 26.65625 -18.625 L 26.65625 -18.515625 L 26.703125 -18.515625 C 29.648438 -18.265625 32.046875 -17.304688 33.890625 -15.640625 C 35.742188 -13.972656 36.671875 -11.972656 36.671875 -9.640625 C 36.671875 -7.878906 36.164062 -6.257812 35.15625 -4.78125 C 34.15625 -3.3125 32.6875 -2.144531 30.75 -1.28125 C 28.8125 -0.425781 26.515625 0 23.859375 0 L 1.125 0 L 1.125 -1.71875 L 2.484375 -1.71875 C 4.273438 -1.71875 5.554688 -2.085938 6.328125 -2.828125 C 7.097656 -3.566406 7.484375 -4.972656 7.484375 -7.046875 L 7.484375 -29.453125 C 7.484375 -31.460938 7.0625 -32.804688 6.21875 -33.484375 C 5.375 -34.171875 4.070312 -34.515625 2.3125 -34.515625 L 1.125 -34.515625 L 1.125 -36.234375 L 22.40625 -36.234375 C 24.695312 -36.234375 26.800781 -35.828125 28.71875 -35.015625 C 30.644531 -34.210938 32.171875 -33.09375 33.296875 -31.65625 C 34.429688 -30.21875 35 -28.585938 35 -26.765625 Z M 14.921875 -33.328125 L 14.921875 -20.25 C 15.742188 -20.0625 16.910156 -19.96875 18.421875 -19.96875 C 21.179688 -19.96875 23.34375 -20.566406 24.90625 -21.765625 C 26.46875 -22.972656 27.25 -24.601562 27.25 -26.65625 C 27.25 -28.769531 26.472656 -30.460938 24.921875 -31.734375 C 23.378906 -33.015625 21.210938 -33.65625 18.421875 -33.65625 C 17.554688 -33.65625 16.390625 -33.546875 14.921875 -33.328125 Z M 14.921875 -17.015625 L 14.921875 -3.453125 C 16.566406 -2.984375 18.179688 -2.75 19.765625 -2.75 C 22.492188 -2.75 24.628906 -3.382812 26.171875 -4.65625 C 27.710938 -5.925781 28.484375 -7.640625 28.484375 -9.796875 C 28.484375 -12.023438 27.566406 -13.847656 25.734375 -15.265625 C 23.898438 -16.679688 21.351562 -17.390625 18.09375 -17.390625 C 16.800781 -17.390625 15.742188 -17.265625 14.921875 -17.015625 Z M 14.921875 -17.015625 "/></g></g></g><g fill="#000000" fill-opacity="1"><g transform="translate(227.7673, 44.904404)"><g><path d="M 11.46875 -25.734375 L 11.46875 -20.140625 L 11.578125 -20.140625 C 12.367188 -21.929688 13.3125 -23.3125 14.40625 -24.28125 C 15.5 -25.25 16.691406 -25.734375 17.984375 -25.734375 C 19.097656 -25.734375 19.984375 -25.4375 20.640625 -24.84375 C 21.304688 -24.25 21.640625 -23.4375 21.640625 -22.40625 C 21.640625 -21.425781 21.390625 -20.640625 20.890625 -20.046875 C 20.390625 -19.460938 19.726562 -19.171875 18.90625 -19.171875 C 18.4375 -19.171875 18.03125 -19.257812 17.6875 -19.4375 C 17.34375 -19.613281 16.972656 -19.863281 16.578125 -20.1875 C 16.328125 -20.363281 16.054688 -20.53125 15.765625 -20.6875 C 15.484375 -20.851562 15.203125 -20.9375 14.921875 -20.9375 C 14.378906 -20.9375 13.75 -20.46875 13.03125 -19.53125 C 12.3125 -18.601562 11.789062 -17.726562 11.46875 -16.90625 L 11.46875 -5.28125 C 11.46875 -4.269531 11.570312 -3.519531 11.78125 -3.03125 C 12 -2.550781 12.40625 -2.222656 13 -2.046875 C 13.59375 -1.867188 14.519531 -1.757812 15.78125 -1.71875 L 15.78125 0 L 1.1875 0 L 1.1875 -1.71875 C 2.257812 -1.757812 3.035156 -1.84375 3.515625 -1.96875 C 4.003906 -2.09375 4.363281 -2.40625 4.59375 -2.90625 C 4.832031 -3.40625 4.953125 -4.210938 4.953125 -5.328125 L 4.953125 -18.140625 C 4.953125 -20.910156 4.160156 -22.296875 2.578125 -22.296875 C 2.398438 -22.296875 2.148438 -22.238281 1.828125 -22.125 L 1.828125 -23.859375 L 9.265625 -25.734375 Z M 11.46875 -25.734375 "/></g></g></g><g fill="#000000" fill-opacity="1"><g transform="translate(253.234356, 44.904404)"><g><path d="M 8.015625 -36.890625 C 9.097656 -36.890625 10.015625 -36.507812 10.765625 -35.75 C 11.523438 -35 11.90625 -34.082031 11.90625 -33 C 11.90625 -31.925781 11.523438 -31.007812 10.765625 -30.25 C 10.015625 -29.5 9.097656 -29.125 8.015625 -29.125 C 6.941406 -29.125 6.023438 -29.5 5.265625 -30.25 C 4.515625 -31.007812 4.140625 -31.925781 4.140625 -33 C 4.140625 -34.082031 4.515625 -35 5.265625 -35.75 C 6.023438 -36.507812 6.941406 -36.890625 8.015625 -36.890625 Z M 11.09375 -25.734375 L 11.09375 -5.328125 C 11.09375 -4.253906 11.207031 -3.460938 11.4375 -2.953125 C 11.675781 -2.453125 12.023438 -2.128906 12.484375 -1.984375 C 12.953125 -1.847656 13.671875 -1.757812 14.640625 -1.71875 L 14.640625 0 L 0.640625 0 L 0.640625 -1.71875 C 1.722656 -1.757812 2.523438 -1.847656 3.046875 -1.984375 C 3.566406 -2.128906 3.953125 -2.453125 4.203125 -2.953125 C 4.453125 -3.460938 4.578125 -4.273438 4.578125 -5.390625 L 4.578125 -18.203125 C 4.578125 -19.523438 4.367188 -20.535156 3.953125 -21.234375 C 3.546875 -21.941406 2.945312 -22.296875 2.15625 -22.296875 C 1.789062 -22.296875 1.410156 -22.222656 1.015625 -22.078125 L 0.640625 -23.796875 L 8.78125 -25.734375 Z M 11.09375 -25.734375 "/></g></g></g><g fill="#000000" fill-opacity="1"><g transform="translate(271.971324, 44.904404)"><g><path d="M 27.03125 -36.890625 L 27.03125 -6.40625 C 27.03125 -4.144531 27.660156 -3.015625 28.921875 -3.015625 C 29.523438 -3.015625 30.203125 -3.160156 30.953125 -3.453125 L 30.953125 -1.71875 L 22.828125 1.015625 L 20.515625 1.015625 L 20.515625 -1.9375 C 19.648438 -1.070312 18.523438 -0.363281 17.140625 0.1875 C 15.765625 0.738281 14.429688 1.015625 13.140625 1.015625 C 11.054688 1.015625 9.175781 0.476562 7.5 -0.59375 C 5.832031 -1.664062 4.523438 -3.15625 3.578125 -5.0625 C 2.628906 -6.96875 2.15625 -9.117188 2.15625 -11.515625 C 2.15625 -13.710938 2.59375 -15.894531 3.46875 -18.0625 C 4.351562 -20.238281 5.753906 -22.0625 7.671875 -23.53125 C 9.585938 -25 12.003906 -25.734375 14.921875 -25.734375 C 15.921875 -25.734375 16.945312 -25.585938 18 -25.296875 C 19.0625 -25.015625 19.898438 -24.675781 20.515625 -24.28125 L 20.515625 -30.15625 C 20.515625 -31.65625 20.289062 -32.648438 19.84375 -33.140625 C 19.394531 -33.628906 18.828125 -33.875 18.140625 -33.875 C 17.859375 -33.875 17.523438 -33.835938 17.140625 -33.765625 C 16.765625 -33.691406 16.398438 -33.617188 16.046875 -33.546875 L 15.71875 -35.265625 L 25.03125 -36.890625 Z M 8.5625 -13.78125 C 8.5625 -11.84375 8.921875 -10.066406 9.640625 -8.453125 C 10.359375 -6.835938 11.335938 -5.5625 12.578125 -4.625 C 13.816406 -3.695312 15.171875 -3.234375 16.640625 -3.234375 C 17.316406 -3.234375 18.003906 -3.359375 18.703125 -3.609375 C 19.410156 -3.859375 20.015625 -4.160156 20.515625 -4.515625 L 20.515625 -17.125 C 20.515625 -19.132812 20.054688 -20.675781 19.140625 -21.75 C 18.222656 -22.832031 16.882812 -23.375 15.125 -23.375 C 12.832031 -23.375 11.164062 -22.410156 10.125 -20.484375 C 9.082031 -18.566406 8.5625 -16.332031 8.5625 -13.78125 Z M 8.5625 -13.78125 "/></g></g></g><g fill="#000000" fill-opacity="1"><g transform="translate(307.022001, 44.904404)"><g><path d="M 13.515625 -26 C 15.921875 -26 18.019531 -25.535156 19.8125 -24.609375 C 20.53125 -24.640625 21.84375 -24.851562 23.75 -25.25 C 25.320312 -25.539062 26.234375 -25.6875 26.484375 -25.6875 C 26.847656 -25.6875 27.09375 -25.640625 27.21875 -25.546875 C 27.34375 -25.460938 27.421875 -25.222656 27.453125 -24.828125 C 27.492188 -24.429688 27.515625 -23.910156 27.515625 -23.265625 C 27.515625 -22.148438 27.46875 -21.4375 27.375 -21.125 C 27.289062 -20.820312 27.066406 -20.671875 26.703125 -20.671875 C 26.523438 -20.671875 25.285156 -20.941406 22.984375 -21.484375 C 23.816406 -20.335938 24.234375 -18.957031 24.234375 -17.34375 C 24.234375 -15.6875 23.765625 -14.203125 22.828125 -12.890625 C 21.898438 -11.585938 20.617188 -10.566406 18.984375 -9.828125 C 17.347656 -9.085938 15.503906 -8.71875 13.453125 -8.71875 C 12.128906 -8.71875 10.820312 -8.898438 9.53125 -9.265625 C 8.3125 -8.078125 7.703125 -7.175781 7.703125 -6.5625 C 7.703125 -5.8125 8.101562 -5.289062 8.90625 -5 C 9.71875 -4.71875 10.878906 -4.523438 12.390625 -4.421875 L 18.90625 -3.9375 C 21.695312 -3.71875 23.691406 -2.988281 24.890625 -1.75 C 26.097656 -0.507812 26.703125 1.003906 26.703125 2.796875 C 26.703125 4.554688 26.128906 6.144531 24.984375 7.5625 C 23.835938 8.976562 22.257812 10.082031 20.25 10.875 C 18.238281 11.664062 15.972656 12.0625 13.453125 12.0625 C 10.941406 12.0625 8.789062 11.78125 7 11.21875 C 5.207031 10.664062 3.84375 9.929688 2.90625 9.015625 C 1.96875 8.097656 1.5 7.15625 1.5 6.1875 C 1.5 4.25 2.972656 2.078125 5.921875 -0.328125 C 5.023438 -0.679688 4.316406 -1.179688 3.796875 -1.828125 C 3.273438 -2.472656 3.015625 -3.175781 3.015625 -3.9375 C 3.015625 -4.832031 3.390625 -5.804688 4.140625 -6.859375 C 4.898438 -7.921875 5.925781 -8.957031 7.21875 -9.96875 C 5.601562 -10.71875 4.375 -11.703125 3.53125 -12.921875 C 2.6875 -14.140625 2.265625 -15.554688 2.265625 -17.171875 C 2.265625 -18.898438 2.738281 -20.4375 3.6875 -21.78125 C 4.632812 -23.125 5.960938 -24.160156 7.671875 -24.890625 C 9.378906 -25.628906 11.328125 -26 13.515625 -26 Z M 8.5625 -18.359375 C 8.5625 -16.066406 9.023438 -14.207031 9.953125 -12.78125 C 10.890625 -11.363281 12.128906 -10.65625 13.671875 -10.65625 C 15.003906 -10.65625 16.046875 -11.140625 16.796875 -12.109375 C 17.554688 -13.078125 17.9375 -14.476562 17.9375 -16.3125 C 17.9375 -18.320312 17.554688 -20.109375 16.796875 -21.671875 C 16.046875 -23.234375 14.769531 -24.015625 12.96875 -24.015625 C 11.75 -24.015625 10.707031 -23.53125 9.84375 -22.5625 C 8.988281 -21.59375 8.5625 -20.191406 8.5625 -18.359375 Z M 6.1875 4.140625 C 6.1875 5.503906 7.003906 6.585938 8.640625 7.390625 C 10.273438 8.203125 12.472656 8.609375 15.234375 8.609375 C 17.785156 8.609375 19.796875 8.222656 21.265625 7.453125 C 22.734375 6.679688 23.46875 5.648438 23.46875 4.359375 C 23.46875 3.492188 23.132812 2.816406 22.46875 2.328125 C 21.8125 1.847656 20.710938 1.539062 19.171875 1.40625 L 7.96875 0.375 C 7.46875 0.84375 7.046875 1.4375 6.703125 2.15625 C 6.359375 2.875 6.1875 3.535156 6.1875 4.140625 Z M 6.1875 4.140625 "/></g></g></g><g fill="#000000" fill-opacity="1"><g transform="translate(338.62688, 44.904404)"><g><path d="M 13.296875 -25.734375 C 15.085938 -25.734375 16.789062 -25.347656 18.40625 -24.578125 C 20.03125 -23.804688 21.332031 -22.675781 22.3125 -21.1875 C 23.300781 -19.695312 23.796875 -17.929688 23.796875 -15.890625 L 23.796875 -14.4375 L 7.328125 -14.4375 C 7.503906 -11.488281 8.375 -9.125 9.9375 -7.34375 C 11.5 -5.570312 13.425781 -4.6875 15.71875 -4.6875 C 17.15625 -4.6875 18.507812 -5.097656 19.78125 -5.921875 C 21.0625 -6.742188 22.0625 -7.820312 22.78125 -9.15625 L 24.125 -8.40625 C 23.226562 -5.632812 21.789062 -3.367188 19.8125 -1.609375 C 17.84375 0.140625 15.53125 1.015625 12.875 1.015625 C 10.675781 1.015625 8.71875 0.453125 7 -0.671875 C 5.28125 -1.804688 3.929688 -3.382812 2.953125 -5.40625 C 1.984375 -7.4375 1.5 -9.765625 1.5 -12.390625 C 1.5 -15.398438 2.066406 -17.898438 3.203125 -19.890625 C 4.335938 -21.890625 5.800781 -23.363281 7.59375 -24.3125 C 9.382812 -25.257812 11.285156 -25.734375 13.296875 -25.734375 Z M 7.328125 -17.171875 L 16.796875 -17.171875 L 16.859375 -18.140625 C 16.859375 -19.679688 16.425781 -20.9375 15.5625 -21.90625 C 14.695312 -22.882812 13.617188 -23.375 12.328125 -23.375 C 11.035156 -23.375 9.910156 -22.816406 8.953125 -21.703125 C 8.003906 -20.585938 7.460938 -19.078125 7.328125 -17.171875 Z M 7.328125 -17.171875 "/></g></g></g><g fill="#ffffff" fill-opacity="1"><g transform="translate(8.638227, 37.184685)"><g><path d="M 12.125 -5.734375 C 12.332031 -6.910156 11.757812 -7.804688 10.40625 -8.421875 L 7.5625 -9.5625 C 4.25 -11.039062 2.675781 -13.070312 2.84375 -15.65625 C 2.914062 -16.851562 3.3125 -17.914062 4.03125 -18.84375 C 4.75 -19.769531 5.753906 -20.492188 7.046875 -21.015625 C 8.347656 -21.546875 9.753906 -21.800781 11.265625 -21.78125 C 13.335938 -21.738281 15.007812 -21.117188 16.28125 -19.921875 C 17.5625 -18.734375 18.191406 -17.132812 18.171875 -15.125 L 13.875 -15.125 C 13.914062 -16.09375 13.695312 -16.847656 13.21875 -17.390625 C 12.75 -17.929688 12.007812 -18.210938 11 -18.234375 C 10.019531 -18.253906 9.164062 -18.03125 8.4375 -17.5625 C 7.707031 -17.09375 7.273438 -16.453125 7.140625 -15.640625 C 6.953125 -14.566406 7.671875 -13.71875 9.296875 -13.09375 L 11.25 -12.34375 L 12.359375 -11.828125 C 15.265625 -10.390625 16.625 -8.375 16.4375 -5.78125 C 16.34375 -4.507812 15.9375 -3.414062 15.21875 -2.5 C 14.5 -1.582031 13.515625 -0.875 12.265625 -0.375 C 11.023438 0.113281 9.65625 0.34375 8.15625 0.3125 C 6.632812 0.28125 5.273438 -0.0351562 4.078125 -0.640625 C 2.890625 -1.253906 1.988281 -2.117188 1.375 -3.234375 C 0.789062 -4.265625 0.519531 -5.441406 0.5625 -6.765625 L 4.890625 -6.765625 C 4.742188 -4.429688 5.890625 -3.242188 8.328125 -3.203125 C 9.378906 -3.203125 10.242188 -3.429688 10.921875 -3.890625 C 11.597656 -4.359375 12 -4.972656 12.125 -5.734375 Z M 12.125 -5.734375 "/></g></g></g><g fill="#ffffff" fill-opacity="1"><g transform="translate(26.792275, 37.184685)"><g><path d="M 0.3125 0 L 4.046875 -21.484375 L 10.734375 -21.46875 C 13.222656 -21.457031 15.09375 -20.945312 16.34375 -19.9375 C 17.59375 -18.9375 18.160156 -17.53125 18.046875 -15.71875 C 17.910156 -13.539062 16.65625 -11.953125 14.28125 -10.953125 C 15.132812 -10.648438 15.796875 -10.09375 16.265625 -9.28125 C 16.742188 -8.476562 16.945312 -7.523438 16.875 -6.421875 C 16.738281 -4.390625 15.945312 -2.8125 14.5 -1.6875 C 13.050781 -0.5625 11.070312 0 8.5625 0 Z M 6.265625 -9.359375 L 5.25 -3.5625 L 8.65625 -3.546875 C 9.71875 -3.546875 10.609375 -3.804688 11.328125 -4.328125 C 12.046875 -4.859375 12.472656 -5.570312 12.609375 -6.46875 C 12.753906 -7.351562 12.632812 -8.039062 12.25 -8.53125 C 11.875 -9.03125 11.238281 -9.300781 10.34375 -9.34375 Z M 6.796875 -12.484375 L 9.734375 -12.453125 C 10.828125 -12.472656 11.71875 -12.726562 12.40625 -13.21875 C 13.101562 -13.707031 13.519531 -14.390625 13.65625 -15.265625 C 13.90625 -17.003906 13 -17.878906 10.9375 -17.890625 L 7.75 -17.890625 Z M 6.796875 -12.484375 "/></g></g></g></g></g></svg>